<?xml version="1.0" encoding="UTF-8"?>
<svg width="60px" height="60px" viewBox="0 0 60 60" version="1.1" xmlns="http://www.w3.org/2000/svg" xmlns:xlink="http://www.w3.org/1999/xlink">
    <!-- Generator: Sketch 57.1 (83088) - https://sketch.com -->
    <title>关闭</title>
    <desc>Created with Sketch.</desc>
    <g id="页面-1" stroke="none" stroke-width="1" fill="none" fill-rule="evenodd">
        <g id="关闭" transform="translate(-0.000000, 0.000000)" fill="#323132" fill-rule="nonzero">
            <path d="M29.9635105,0.0233520686 C37.906312,0.0122709729 45.5257534,3.16845026 51.1341692,8.7928518 C53.8697304,11.5189105 56.0480269,14.751779 57.5473428,18.3108158 C59.1086568,21.9969898 59.9100804,25.9603195 59.9036689,29.9635105 C59.91475,37.906312 56.7585707,45.5257534 51.1341692,51.1341692 C48.4081105,53.8697304 45.1752419,56.0480269 41.6162051,57.5473428 C37.9300312,59.1086568 33.9667015,59.9100804 29.9635105,59.9036689 C22.0207089,59.91475 14.4012676,56.7585707 8.7928518,51.1341692 C6.05729052,48.4081105 3.87899405,45.1752419 2.37967814,41.6162051 C0.81836415,37.9300312 0.01694059,33.9667015 0.0233520686,29.9635105 C0.0122709729,22.0207089 3.16845026,14.4012676 8.7928518,8.7928518 C11.5189105,6.05729052 14.751779,3.87899405 18.3108158,2.37967814 C21.9969898,0.81836415 25.9603195,0.01694059 29.9635105,0.0233520686 Z M29.9635105,4.861637 C23.2569237,4.861637 16.9545284,7.47548655 12.2120134,12.2120134 C7.48815763,16.9091746 4.84116506,23.3018504 4.86159534,29.9635105 C4.86159534,36.6700973 7.47548655,42.9724925 12.2120134,47.7150075 C16.9114476,52.4354705 23.3026413,55.0818494 29.9635105,55.065384 C36.6700973,55.065384 42.9724925,52.4515344 47.7150075,47.7150075 C52.4354705,43.0155734 55.0818494,36.6243796 55.065384,29.9635105 C55.065384,23.2569237 52.4515344,16.9545284 47.7150075,12.2120134 C43.0155734,7.49155046 36.6243796,4.84517155 29.9635105,4.861637 Z M22.1611153,18.0593188 L30.0742889,26.2090195 L37.7569236,18.2868638 C38.3586059,17.6664624 39.2455635,17.4141816 40.083688,17.6250531 C40.9218125,17.8359246 41.5837728,18.477912 41.820215,19.3091849 C42.0566572,20.1404577 41.8316599,21.0347259 41.2299776,21.6551272 L33.4455464,29.6820733 L41.7778818,38.2659057 C42.708002,39.2249631 42.6845439,40.7564441 41.7254865,41.6865644 C40.7664292,42.6166847 39.2349481,42.5932265 38.3048278,41.6341692 L30.0712949,33.1551273 L21.6132111,41.8677021 C21.1686346,42.3294034 20.5581033,42.59447 19.917225,42.6040269 C19.2763468,42.6135839 18.6581833,42.3668399 18.2000374,41.9186003 C17.7385243,41.472071 17.4737547,40.8601875 17.4642047,40.2180881 C17.4546546,39.5759887 17.7011099,38.9565017 18.1491392,38.4964446 L26.7060255,29.6820733 L18.6910554,21.4305763 C17.7609351,20.471519 17.7843932,18.940038 18.7434506,18.0099177 C19.7025079,17.0797974 21.233989,17.1032555 22.1641093,18.0623129 L22.1611153,18.0593188 Z" id="形状"></path>
        </g>
    </g>
</svg>