<?xml version="1.0" encoding="UTF-8"?>
<svg width="59px" height="53px" viewBox="0 0 59 53" version="1.1" xmlns="http://www.w3.org/2000/svg" xmlns:xlink="http://www.w3.org/1999/xlink">
    <!-- Generator: Sketch 57.1 (83088) - https://sketch.com -->
    <title>自定义桌面备份 5</title>
    <desc>Created with Sketch.</desc>
    <g id="页面-1" stroke="none" stroke-width="1" fill="none" fill-rule="evenodd">
        <g id="自定义桌面备份-5" fill-rule="nonzero">
            <polygon id="路径" fill="#324A5E" points="36.1433288 51.0864745 38.1894934 36.7184035 20.6285178 36.7184035 22.6746825 51.0864745"></polygon>
            <path d="M37.0330094,46.7138338 L38.5669044,36.7184035 L20.2511069,36.7184035 L21.7850019,46.7138338 L37.0330094,46.7138338 Z M41.1163227,52.6829268 L41.1163227,51.6523381 C41.1146526,50.2760816 40.0583638,49.1608449 38.754852,49.1590816 L20.0631593,49.1590816 C18.7596474,49.1608449 17.7033587,50.2760816 17.7016886,51.6523381 L17.7016886,52.6829268 L41.1163227,52.6829268 Z" id="形状" fill="#2B3B4E"></path>
            <path d="M55.8148593,43.1042129 L3.00022514,43.1042129 C2.24210462,43.1050583 1.51476881,42.7753286 0.978421953,42.187644 C0.442075092,41.5999595 0.140712946,40.8025266 0.140712946,39.9709892 L0.140712946,3.13642731 C0.140712946,1.40609536 1.41973734,0 3.00022514,0 L55.8177861,0 C57.3982739,0 58.6772983,1.40609536 58.6772983,3.13642731 L58.6772983,39.9709892 C58.6772983,40.8030837 58.3755357,41.6010042 57.8385553,42.1887813 C57.3015749,42.7765584 56.5734865,43.1059114 55.8148593,43.1042129" id="路径" fill="#324A5E"></path>
            <polygon id="路径" fill="#D7D5D5" points="3.06754221 3.19290466 55.750469 3.19290466 55.750469 36.7184035 3.06754221 36.7184035"></polygon>
        </g>
    </g>
</svg>