<?xml version="1.0" encoding="UTF-8"?>
<svg width="60px" height="54px" viewBox="0 0 60 54" version="1.1" xmlns="http://www.w3.org/2000/svg" xmlns:xlink="http://www.w3.org/1999/xlink">
    <!-- Generator: Sketch 57.1 (83088) - https://sketch.com -->
    <title>电脑</title>
    <desc>Created with Sketch.</desc>
    <g id="页面-1" stroke="none" stroke-width="1" fill="none" fill-rule="evenodd">
        <g id="电脑" fill-rule="nonzero">
            <path d="M55.7827619,42.6922365 L4.19058769,42.6922365 C3.08122525,42.6977793 2.01538184,42.2564597 1.22890923,41.4658611 C0.442436609,40.6752624 0,39.6005697 0,38.4795931 L0,33.5151935 C0,33.1936427 0.126016537,32.8851872 0.351642634,32.658432 C0.577268732,32.4316767 0.883212658,32.3054242 1.20142811,32.3077232 L58.7985719,32.3077232 C59.1167873,32.3054242 59.4227313,32.4316767 59.6483574,32.658432 C59.8739835,32.8851872 60,33.1936427 60,33.5151935 L60,38.4795931 C59.9937122,39.6033387 59.5458386,40.6785224 58.7549286,41.4685575 C57.9640185,42.2585926 56.8948772,42.6987455 55.7827619,42.6922365 L55.7827619,42.6922365 Z M2.3769241,34.6957031 L2.3769241,38.4803209 C2.38049801,39.4902278 3.1925671,40.3065554 4.19202825,40.3049457 L55.7827619,40.3049457 C56.7822231,40.3065554 57.5942922,39.4902278 57.5978661,38.4803209 L57.5978661,34.6957031 L2.3769241,34.6957031 Z" id="形状" fill="#1B304A"></path>
            <path d="M31.6572031,1.18046944 L4.17468037,1.18046944 C2.51528168,1.18513487 1.16845815,2.52065306 1.15384615,4.17594655 L1.15384615,33.4615385 L58.8461538,33.4615385 L58.8461538,4.15148192 C58.8327204,2.49534448 57.4855543,1.15852392 55.8253196,1.15384615 L50.5049583,1.15384615" id="路径" fill="#3583E3"></path>
            <path d="M58.8237177,34.6153846 L1.20192521,34.6153846 C0.5478832,34.6228914 0.010665296,34.1021137 0,33.4501485 L0,4.18436718 C0.00992411763,1.88380874 1.88456961,0.0246306038 4.19232661,0.0266307054 L38.6100453,0.0266307054 C39.0371943,0.0265418317 39.4319344,0.253663253 39.6455347,0.62241971 C39.8591349,0.991176166 39.8591349,1.44552851 39.6455347,1.81428497 C39.4319344,2.18304142 39.0371943,2.41016285 38.6100453,2.41007397 L4.19232661,2.41007397 C3.19301249,2.40927571 2.38148388,3.21474594 2.37790955,4.21094569 L2.37790955,32.2584268 L57.6217924,32.2584268 L57.6217924,4.18436718 C57.618217,3.187606 56.8058106,2.38190447 55.8059342,2.38349552 L43.5503325,2.38349552 C43.1231835,2.38358439 42.7284435,2.15646297 42.5148432,1.78770652 C42.301243,1.41895006 42.301243,0.964597713 42.5148432,0.595841257 C42.7284435,0.227084801 43.1231835,0 43.5503325,0 L55.8059342,0 C56.9157575,-0.00549019717 57.9820437,0.430084795 58.7688431,1.2103924 C59.5556424,1.99070001 59.998083,3.05140359 59.9982608,4.15778873 L59.9982608,33.3941182 C60.0158456,33.7142861 59.899471,34.0273898 59.6768618,34.2588368 C59.4542525,34.4902838 59.1453398,34.6193516 58.8237177,34.6153846 Z" id="路径" fill="#1B304A"></path>
            <path d="M42.6187131,2.39237549 L37.449383,2.39237549 C37.0227908,2.40301172 36.624055,2.1774088 36.4076857,1.80298783 C36.1913164,1.42856685 36.1913164,0.964168798 36.4076857,0.589747825 C36.624055,0.215326852 37.0227908,-0.0102760662 37.449383,0.000360160816 L42.6187131,0.000360160816 C43.0453053,-0.0102760662 43.4440411,0.215326852 43.6604104,0.589747825 C43.8767797,0.964168798 43.8767797,1.42856685 43.6604104,1.80298783 C43.4440411,2.1774088 43.0453053,2.40301172 42.6187131,2.39237549 L42.6187131,2.39237549 Z M27.9294174,37.3688759 C27.9301637,37.7716423 28.0881442,38.1575894 28.3685648,38.4417153 C28.6489854,38.7258413 29.0288463,38.8848422 29.424486,38.8836994 C29.821444,38.8893161 30.203859,38.7317575 30.48524,38.4466584 C30.7666211,38.1615594 30.9231969,37.7730055 30.9195546,37.3688759 C30.9188083,36.9661095 30.7608279,36.5801624 30.4804073,36.2960365 C30.1999866,36.0119105 29.8201258,35.8529096 29.424486,35.8540463 C28.6043656,35.861004 27.9401199,36.5340266 27.9294174,37.3688759 L27.9294174,37.3688759 Z M43.7960268,53.0765629 L15.0501271,53.0765629 C14.6235351,53.0871988 14.2247997,52.8615958 14.0084307,52.4871749 C13.7920616,52.1127541 13.7920616,51.6483564 14.0084307,51.2739356 C14.2247997,50.8995147 14.6235351,50.6739117 15.0501271,50.6845476 L43.7960268,50.6845476 C44.2226187,50.6739117 44.6213541,50.8995147 44.8377232,51.2739356 C45.0540923,51.6483564 45.0540923,52.1127541 44.8377232,52.4871749 C44.6213541,52.8615958 44.2226187,53.0871988 43.7960268,53.0765629 L43.7960268,53.0765629 Z" id="形状" fill="#1B304A"></path>
            <path d="M19.6161094,53.0769231 L19.6161094,50.7265488 C22.7429161,50.7265488 25.4145456,46.5285311 25.4145456,41.5384615 L27.7926292,41.5384615 C27.7926292,48.0073619 24.2120949,53.0769231 19.6153846,53.0769231 L19.6161094,53.0769231 Z M39.2307692,53.0769231 C34.6347838,53.0769231 31.0535247,48.0073619 31.0535247,41.5384615 L33.4316083,41.5384615 C33.4316083,46.5020338 36.0771448,50.7265488 39.2300445,50.7265488 L39.2307692,53.0769231 Z" id="形状" fill="#1B304A"></path>
            <path d="M38.847081,26.5384615 L20.8711889,26.5384615 C18.1817084,26.5384615 16.1538462,24.4052768 16.1538462,21.5755387 C16.1538462,19.1797365 17.5923489,17.2636446 19.7079968,16.7512516 C20.2411937,14.1861307 22.5237799,12.3063772 25.2093391,12.3063772 C26.0034898,12.3063772 26.7856237,12.4726339 27.5020447,12.7912118 C28.8527301,10.579195 31.2433092,9.23076923 33.8883909,9.23076923 C38.010587,9.23076923 41.3658917,12.5592149 41.3658917,16.6527662 C41.3658917,16.8616103 41.3570689,17.0704857 41.3399608,17.2749555 C42.8757045,18.1561065 43.8461538,19.7943019 43.8461538,21.5755387 C43.8461538,24.3125717 41.6040768,26.5384615 38.847081,26.5384615 Z" id="路径" fill="#FFFFFF"></path>
        </g>
    </g>
</svg>