<?xml version="1.0" encoding="UTF-8"?>
<svg width="60px" height="60px" viewBox="0 0 60 60" version="1.1" xmlns="http://www.w3.org/2000/svg" xmlns:xlink="http://www.w3.org/1999/xlink">
    <!-- Generator: Sketch 57.1 (83088) - https://sketch.com -->
    <title>常规化</title>
    <desc>Created with Sketch.</desc>
    <g id="页面-1" stroke="none" stroke-width="1" fill="none" fill-rule="evenodd">
        <g id="常规化" transform="translate(-0.000000, 0.000000)" fill="#323132" fill-rule="nonzero">
            <path d="M4.12087912,-1.77635684e-14 L55.6318681,-1.77635684e-14 C57.8356643,-1.77635684e-14 59.6403445,1.73789847 59.7476954,3.91548213 L59.7527473,4.12087912 L59.7527473,55.6318681 C59.7527473,57.8356643 58.0148488,59.6403445 55.8372651,59.7476954 L55.6318681,59.7527473 L4.12087912,59.7527473 C1.91708292,59.7527473 0.112402749,58.0148488 0.00505188108,55.8372651 L-1.77635684e-14,55.6318681 L-1.77635684e-14,4.12087912 C-1.77635684e-14,1.91708292 1.73789847,0.112402749 3.91548213,0.00505188108 L4.12087912,-1.77635684e-14 L55.6318681,-1.77635684e-14 Z M55.6318681,4.12087912 L4.12087912,4.12087912 L4.12087912,55.6318681 L55.635989,55.6318681 L55.6318681,4.12087912 Z M24.6444444,35.3555556 L24.6444444,48.6888889 L19.5333333,43.5777778 L13.1555556,50 L10,46.8444444 L16.4222222,40.4666667 L11.3111111,35.3555556 L24.6444444,35.3555556 Z M48.6888889,35.3555556 L43.5777778,40.4666667 L50,46.8444444 L46.8444444,50 L40.4666667,43.5777778 L35.3555556,48.6888889 L35.3555556,35.3555556 L48.6888889,35.3555556 Z M46.8444444,10 L50,13.1555556 L43.5777778,19.5333333 L48.6888889,24.6444444 L35.3555556,24.6444444 L35.3555556,11.3111111 L40.4666667,16.4222222 L46.8444444,10 Z M13.1555556,10 L19.5333333,16.4222222 L24.6444444,11.3111111 L24.6444444,24.6444444 L11.3111111,24.6444444 L16.4222222,19.5333333 L10,13.1555556 L13.1555556,10 Z" id="形状结合"></path>
        </g>
    </g>
</svg>