<?xml version="1.0" encoding="UTF-8"?>
<svg width="60px" height="48px" viewBox="0 0 60 48" version="1.1" xmlns="http://www.w3.org/2000/svg" xmlns:xlink="http://www.w3.org/1999/xlink">
    <!-- Generator: Sketch 57.1 (83088) - https://sketch.com -->
    <title>云服务器列表-面包屑备份</title>
    <desc>Created with Sketch.</desc>
    <g id="页面-1" stroke="none" stroke-width="1" fill="none" fill-rule="evenodd">
        <g id="云服务器列表-面包屑备份" transform="translate(-0.000000, 0.000000)" fill="#3583E3" fill-rule="nonzero">
            <path d="M39,11.25 C39,12.375 37.875,13.5 36.75,13.5 L23.25,13.5 C22.125,13.5 21,12.375 21,11.25 C21,9.75 22.125,9 23.25,9 L36.75,9 C37.875,9 39,9.75 39,11.25 Z M36.75,19.5 L23.25,19.5 C22.125,19.5 21,20.25 21,21.75 C21,22.875 22.125,24 23.25,24 L36.75,24 C37.875,24 39,22.875 39,21.75 C39,20.25 37.875,19.5 36.75,19.5 Z M60,34.5 C60,41.25 55.125,46.875 48.75,48 L11.25,48 C4.875,46.875 0,41.25 0,34.5 C0,30.375 1.875,26.25 5.25,23.625 L5.25,22.5 C5.25,17.25 9.375,12.75 14.625,12.75 L15,12.75 L15,5.25 C15,2.25 17.25,0 20.25,0 L39.375,0 C42.75,0 45,2.25 45,5.25 L45,7.5 C49.5,10.875 52.5,16.125 52.5,22.5 C57,24.75 60,29.625 60,34.5 Z M42,5.25 C42,4.125 40.875,3 39.75,3 L20.25,3 C19.125,3 18,4.125 18,5.25 L18,42 L42,42 L42,5.25 L42,5.25 Z" id="形状"></path>
        </g>
    </g>
</svg>