<?xml version="1.0" encoding="UTF-8"?>
<svg width="60px" height="56px" viewBox="0 0 60 56" version="1.1" xmlns="http://www.w3.org/2000/svg" xmlns:xlink="http://www.w3.org/1999/xlink">
    <!-- Generator: Sketch 57.1 (83088) - https://sketch.com -->
    <title>告警</title>
    <desc>Created with Sketch.</desc>
    <g id="页面-1" stroke="none" stroke-width="1" fill="none" fill-rule="evenodd">
        <g id="首页备份-3" transform="translate(-1238.000000, -911.000000)" fill="#F5A623" fill-rule="nonzero">
            <g id="告警" transform="translate(1238.000000, 911.000000)">
                <path d="M33.156,46.2567187 C32.334,47.1267187 31.194,47.6067187 30.012,47.5887187 C28.788,47.5887187 27.711,47.1447188 26.832,46.2567187 C25.9524304,45.4116514 25.4680688,44.2361221 25.497,43.0167188 C25.497,41.7747187 25.932,40.6677187 26.835,39.7827188 C27.711,38.8557188 28.785,38.4117188 30.012,38.4117188 C31.233,38.4117188 32.283,38.8557188 33.156,39.7827188 C34.065,40.6677188 34.497,41.7747188 34.497,43.0167188 C34.497,44.2917188 34.065,45.3597188 33.156,46.2567188 L33.156,46.2567187 Z M26.781,15.7227188 C27.621,14.8047188 28.707,14.3247188 30.012,14.3247188 C31.323,14.3247188 32.403,14.7687188 33.246,15.7227188 C34.065,16.6407187 34.497,17.8017187 34.497,19.1967187 C34.497,20.3847188 32.748,29.2047188 32.142,35.6217187 L27.912,35.6217187 C27.42,29.2017187 25.5,20.3817188 25.5,19.1967187 C25.5,17.8317188 25.938,16.6707187 26.787,15.7227188 L26.781,15.7227188 Z M58.77,45.7227187 L35.226,3.83671875 C32.346,-1.26628125 27.651,-1.26628125 24.771,3.83671875 L1.23,45.7197187 C-1.65,50.8227187 0.705,55.0107188 6.471,55.0107188 L53.553,55.0107188 C59.292,55.0107188 61.653,50.8227188 58.767,45.7197188 L58.77,45.7197188 L58.77,45.7227187 Z" id="形状"></path>
            </g>
        </g>
    </g>
</svg>